<svg xmlns="http://www.w3.org/2000/svg" xmlns:xlink="http://www.w3.org/1999/xlink" version="1.1" id="Layer_1" x="0px" y="0px" viewBox="0 0 50 37" style="enable-background:new 0 0 50 37;" xml:space="preserve">
<style type="text/css">
	.st0{fill:#FFFFFF;}
	.st1{fill:#0872B9;}
	.st2{fill:#FBED1F;}
</style>
<rect x="0.5" y="0.5" class="st0" width="49" height="36"/>
<g>
	<g>
		<g>
			<rect x="1" y="26.8" class="st1" width="48" height="9"/>
			<rect x="1" y="1.2" class="st1" width="48" height="9"/>
		</g>
		<rect x="1" y="11" class="st1" width="48" height="15.2"/>
		<g>
			<path class="st0" d="M46.1,4.3h-4l0.3,0.5h4l1.4,0.9c0,0,0.3,0.3,0.1,0.5l-1.6,1.2h-7.6l-0.6-0.8v2.2h-9.5V4.5h7v2.2h-4v0.8h4.7     h0.2V4.6h2.6l1.6,1.6h4.5V5.4h-4.5l-2.2-2.2h7L46.1,4.3z"/>
			<rect x="39.4" y="7.9" class="st0" width="1" height="0.9"/>
			<rect x="41.7" y="7.9" class="st0" width="1" height="0.9"/>
			<rect x="6.8" y="3.7" class="st0" width="1.4" height="1.3"/>
			<rect x="8.6" y="3.7" class="st0" width="1.4" height="1.3"/>
			<rect x="19.8" y="3.7" class="st0" width="1.4" height="1.3"/>
			<rect x="22.8" y="5.8" class="st0" width="3.5" height="1.3"/>
			<polygon class="st0" points="19.1,5.3 21.6,5.3 21.6,8.1 3.4,8.1 2,6.4 4.3,3.2 6.2,3.2 4.8,6.4 16.9,6.4 16.9,5.4 18.5,5.4      18.5,6.4 19.1,6.4    "/>
		</g>
		<g>
			<g>
				<path class="st0" d="M11.7,34.1h-1.6v-2.6c0-0.6,0-0.9-0.1-1.1S9.8,30.1,9.7,30c-0.1-0.1-0.3-0.1-0.5-0.1      c-0.3,0-0.5,0.1-0.7,0.2s-0.4,0.3-0.4,0.5C8.1,30.7,8,31.1,8,31.7v2.3H6.5v-5.2h1.4v0.8c0.5-0.6,1.2-0.9,1.9-0.9      c0.3,0,0.6,0.1,0.9,0.2c0.3,0.1,0.5,0.3,0.6,0.4c0.1,0.2,0.2,0.4,0.3,0.6c0.1,0.2,0.1,0.5,0.1,0.9L11.7,34.1L11.7,34.1z"/>
				<path class="st0" d="M25.8,32.4l1.5,0.2c-0.2,0.5-0.5,0.9-0.9,1.2c-0.4,0.3-1,0.4-1.6,0.4c-1,0-1.8-0.3-2.2-0.9      c-0.4-0.5-0.6-1.1-0.6-1.8c0-0.9,0.3-1.6,0.8-2.1s1.1-0.7,1.9-0.7c0.9,0,1.5,0.3,2,0.8s0.7,1.3,0.7,2.3h-3.7      c0,0.4,0.1,0.7,0.4,1c0.2,0.2,0.5,0.3,0.9,0.3c0.2,0,0.4-0.1,0.6-0.2C25.6,32.9,25.7,32.7,25.8,32.4z M25.9,31      c0-0.4-0.1-0.7-0.3-0.9c-0.2-0.2-0.5-0.3-0.8-0.3S24.2,30,24,30.1c-0.2,0.2-0.3,0.5-0.3,0.9H25.9z"/>
				<path class="st0" d="M43.4,28.9V30h-1V32c0,0.4,0,0.7,0,0.8c0,0.1,0.1,0.1,0.1,0.2c0.1,0,0.2,0.1,0.3,0.1c0.1,0,0.3,0,0.6-0.1      l0.1,1.1c-0.4,0.1-0.8,0.2-1.2,0.2c-0.3,0-0.5,0-0.7-0.1c-0.2-0.1-0.4-0.2-0.5-0.3c-0.1-0.1-0.2-0.3-0.2-0.5      c0-0.2-0.1-0.5-0.1-1v-2.3h-0.7v-1.1h0.7V28l1.5-0.8v1.9h1.1V28.9z"/>
			</g>
		</g>
		<g>
			<g>
				<g>
					<rect x="7.5" y="12.1" class="st2" width="11.4" height="12.1"/>
				</g>
				<polygon class="st2" points="18.4,17.5 26.9,12.2 41.8,12.2 33.6,17.5 42.5,24.1 26.5,24.1 18.6,18     "/>
			</g>
		</g>
	</g>
</g>
</svg>